<?xml version="1.0" standalone="no"?>
<!DOCTYPE svg PUBLIC "-//W3C//DTD SVG 20010904//EN"
 "http://www.w3.org/TR/2001/REC-SVG-20010904/DTD/svg10.dtd">
<svg version="1.0" xmlns="http://www.w3.org/2000/svg"
 width="3000.000000pt" height="3000.000000pt" viewBox="0 0 3000.000000 3000.000000"
 preserveAspectRatio="xMidYMid meet">
<metadata>
Created by potrace 1.14, written by Peter Selinger 2001-2017
</metadata>
<g transform="translate(0.000000,3000.000000) scale(0.100000,-0.100000)"
fill="#000000" stroke="none">
<path d="M4098 28049 c-49 -13 -103 -50 -134 -92 -132 -177 -14 -419 205 -420
156 -1 273 127 258 284 -14 161 -173 270 -329 228z"/>
<path d="M6165 26723 c-168 -18 -307 -139 -343 -299 -11 -49 -7 -144 9 -193
75 -238 356 -340 568 -207 201 127 235 405 71 580 -64 68 -148 107 -260 120
-8 1 -28 0 -45 -1z"/>
<path d="M4375 25675 c-228 -68 -340 -314 -242 -529 32 -70 114 -151 186 -184
48 -22 70 -26 156 -26 88 -1 107 2 158 26 70 33 155 116 185 181 80 170 26
374 -124 478 -87 60 -223 83 -319 54z"/>
<path d="M8288 25135 c-2 -2 -19 -7 -38 -10 -89 -16 -216 -107 -280 -200 -90
-132 -101 -337 -26 -479 84 -159 258 -261 435 -255 261 9 459 214 459 475 0
210 -112 363 -333 454 -27 11 -208 23 -217 15z"/>
<path d="M26437 23695 c-156 -59 -222 -220 -152 -368 69 -147 278 -188 404
-81 138 118 109 355 -52 433 -57 28 -151 35 -200 16z"/>
<path d="M10110 23491 c-86 -23 -127 -42 -197 -89 -111 -75 -204 -200 -240
-320 -22 -76 -22 -76 -27 -163 -15 -261 149 -510 396 -603 187 -71 403 -46
564 65 165 113 262 289 269 485 7 199 -69 375 -218 501 -146 123 -364 173
-547 124z"/>
<path d="M25805 23191 c-533 -216 -962 -391 -1058 -429 -67 -27 -89 -40 -93
-58 -12 -49 24 -57 103 -23 52 22 413 169 826 335 144 58 276 111 292 119 17
7 77 32 135 55 145 57 168 68 179 88 12 22 -4 52 -27 52 -9 -1 -170 -63 -357
-139z"/>
<path d="M26312 23098 c-11 -29 -31 -89 -45 -133 -14 -44 -55 -174 -92 -290
-37 -115 -96 -302 -132 -415 -35 -113 -86 -272 -113 -355 -121 -375 -121 -377
-80 -388 28 -7 45 18 73 108 15 44 60 188 102 320 42 132 92 290 112 350 19
61 44 137 53 170 10 33 61 195 114 359 101 314 103 326 50 326 -18 0 -26 -10
-42 -52z"/>
<path d="M4334 22984 c-166 -34 -299 -152 -353 -312 -76 -224 30 -476 244
-576 113 -54 206 -63 335 -32 54 13 148 67 197 115 95 91 144 206 145 335 0
98 -7 130 -47 213 -96 197 -308 301 -521 257z"/>
<path d="M24125 22836 c-146 -46 -248 -158 -273 -302 -30 -172 57 -338 217
-412 48 -23 69 -27 156 -27 87 0 107 3 156 26 167 78 256 265 212 439 -43 166
-184 281 -352 286 -42 1 -94 -3 -116 -10z"/>
<path d="M23625 22289 c-62 -30 -171 -79 -720 -325 -280 -125 -522 -236 -537
-247 -24 -15 -26 -22 -17 -38 22 -41 13 -44 414 136 204 92 670 302 715 322
269 120 261 114 240 154 -13 24 -43 23 -95 -2z"/>
<path d="M21603 21755 c-80 -25 -104 -38 -175 -97 -144 -119 -199 -331 -134
-515 115 -327 536 -420 782 -174 159 158 182 409 56 599 -112 170 -333 248
-529 187z"/>
<path d="M25587 21454 c-185 -43 -310 -227 -285 -418 49 -362 527 -453 706
-135 82 144 57 329 -60 448 -96 98 -226 135 -361 105z"/>
<path d="M20940 20885 c-135 -80 -252 -148 -260 -152 -8 -3 -46 -25 -85 -49
-38 -23 -126 -74 -195 -114 -69 -40 -138 -81 -155 -91 -16 -10 -40 -23 -52
-28 -12 -6 -27 -19 -33 -30 -8 -17 -6 -25 10 -41 11 -11 24 -19 28 -17 11 6
375 217 392 228 37 22 390 228 430 251 25 14 85 49 133 77 79 47 88 55 85 79
-6 53 -39 41 -298 -113z"/>
<path d="M12008 20945 c-2 -2 -25 -6 -52 -9 -171 -23 -352 -137 -460 -290
-158 -222 -174 -512 -41 -751 32 -59 100 -143 140 -176 11 -10 34 -29 50 -43
17 -14 59 -42 95 -60 187 -98 427 -108 607 -25 24 10 45 19 48 19 18 0 121 76
173 128 209 206 267 518 148 795 -86 200 -306 368 -526 403 -46 7 -177 13
-182 9z"/>
<path d="M25562 20628 c-8 -11 -19 -54 -38 -143 -1 -5 -9 -46 -18 -90 -9 -44
-18 -89 -20 -100 -3 -11 -9 -40 -15 -65 -5 -25 -12 -58 -15 -75 -3 -16 -15
-75 -27 -130 -11 -55 -22 -107 -24 -115 -2 -8 -15 -73 -30 -145 -15 -71 -28
-137 -30 -145 -2 -8 -15 -71 -29 -140 -14 -69 -28 -136 -31 -150 -3 -14 -21
-103 -41 -198 -29 -138 -33 -176 -24 -187 17 -21 57 -19 64 3 4 14 33 152 50
238 2 10 12 55 21 99 42 203 77 372 81 390 2 11 24 117 49 235 24 118 65 314
90 435 25 121 48 228 51 237 12 41 -38 77 -64 46z"/>
<path d="M19393 20593 c-292 -58 -503 -307 -504 -595 -1 -153 44 -282 136
-401 65 -82 215 -186 294 -202 9 -2 36 -8 61 -14 67 -16 204 -13 274 5 203 53
365 199 431 390 83 240 29 472 -149 649 -143 141 -352 206 -543 168z"/>
<path d="M4985 20313 c-188 -40 -343 -151 -430 -308 -183 -332 -37 -738 316
-878 157 -63 352 -52 510 29 133 67 270 233 303 369 5 17 11 41 14 55 4 14 7
72 7 130 0 81 -5 121 -22 175 -59 188 -216 346 -403 406 -62 20 -242 34 -295
22z"/>
<path d="M18840 19509 c-19 -18 -74 -68 -121 -113 -47 -45 -134 -126 -193
-181 -60 -55 -125 -116 -146 -135 -82 -77 -255 -237 -298 -278 -26 -24 -71
-66 -102 -94 -194 -180 -280 -264 -280 -274 0 -16 33 -42 50 -39 9 1 31 18 50
36 19 19 100 95 180 169 262 245 305 285 310 290 6 6 97 90 264 245 65 61 133
124 150 140 18 17 76 70 128 119 74 67 96 93 92 109 -4 21 -21 37 -39 37 -6 0
-26 -14 -45 -31z"/>
<path d="M25020 18819 c-66 -13 -179 -72 -228 -121 -64 -61 -98 -116 -126
-198 -63 -187 7 -408 165 -525 86 -64 156 -87 265 -91 148 -5 251 34 352 134
247 242 155 660 -173 782 -66 24 -181 33 -255 19z"/>
<path d="M17035 18484 c-293 -52 -519 -279 -571 -574 -53 -303 102 -610 378
-751 190 -96 443 -98 631 -3 201 102 343 291 382 509 23 127 5 290 -45 402
-10 24 -18 44 -17 46 3 5 -84 125 -116 159 -168 175 -407 254 -642 212z"/>
<path d="M13088 17884 c-2 -1 -32 -5 -68 -9 -150 -15 -331 -100 -457 -215
-112 -103 -222 -282 -247 -402 -3 -13 -7 -32 -9 -43 -19 -86 -25 -243 -12
-305 2 -14 10 -49 16 -77 31 -151 127 -315 250 -427 163 -149 358 -224 579
-224 217 0 397 69 579 223 13 11 51 54 84 95 87 109 151 248 176 385 12 63 12
230 1 281 -5 22 -12 55 -15 74 -3 19 -20 68 -36 109 -113 282 -369 483 -669
526 -50 7 -168 14 -172 9z"/>
<path d="M24857 17739 c-10 -6 -33 -43 -51 -82 -19 -40 -52 -110 -74 -157 -58
-124 -120 -255 -157 -335 -18 -38 -53 -113 -78 -165 -24 -52 -64 -135 -87
-185 -23 -49 -69 -146 -101 -214 -61 -128 -70 -165 -43 -175 36 -14 46 -4 91
92 25 53 61 131 80 172 20 41 50 107 68 145 51 109 107 229 170 360 31 66 69
147 85 180 15 33 53 114 84 179 31 66 59 129 62 141 7 29 -24 57 -49 44z"/>
<path d="M7555 17732 c-85 -10 -214 -63 -302 -123 -270 -186 -373 -560 -238
-865 117 -264 394 -433 687 -417 290 16 551 221 634 498 24 82 24 80 28 170
17 338 -199 634 -525 721 -60 15 -216 25 -284 16z"/>
<path d="M16637 17111 c-8 -9 -29 -43 -48 -76 -44 -77 -36 -64 -164 -286 -60
-105 -122 -212 -136 -237 -26 -46 -171 -297 -331 -571 -43 -74 -78 -142 -78
-152 0 -21 24 -42 45 -37 10 2 50 59 89 128 40 69 185 321 323 560 138 239
260 451 271 470 79 135 93 165 88 185 -7 29 -41 38 -59 16z"/>
<path d="M23740 16353 c-43 -8 -110 -31 -155 -53 -282 -137 -414 -455 -313
-755 35 -104 121 -224 216 -297 42 -34 145 -80 220 -99 212 -54 430 8 591 170
69 68 137 189 155 276 3 17 9 41 12 55 2 14 5 59 5 101 3 225 -138 450 -341
547 -137 65 -250 81 -390 55z"/>
<path d="M15299 15734 c-183 -27 -339 -105 -475 -239 -128 -127 -197 -252
-237 -429 -19 -83 -20 -259 -3 -341 57 -259 218 -474 441 -587 91 -47 124 -59
215 -78 117 -26 300 -22 407 9 322 93 561 358 614 680 10 61 13 221 5 261 -3
14 -8 39 -12 55 -41 211 -176 411 -360 534 -74 50 -197 106 -254 116 -18 3
-36 8 -40 10 -9 6 -122 17 -181 19 -25 0 -79 -4 -120 -10z"/>
<path d="M10300 15696 c-219 -49 -392 -162 -511 -334 -99 -142 -147 -287 -151
-449 -3 -180 38 -324 140 -488 34 -54 166 -185 222 -220 52 -33 154 -85 178
-91 10 -2 42 -11 72 -19 78 -22 95 -24 190 -26 153 -3 265 22 400 92 153 78
277 205 355 364 63 129 86 225 85 365 0 76 -2 93 -22 190 -37 175 -173 378
-323 480 -90 61 -216 117 -306 135 -62 13 -272 13 -329 1z"/>
<path d="M23102 15223 c-245 -156 -829 -528 -892 -569 -36 -23 -202 -128 -370
-234 -168 -106 -313 -201 -323 -213 -15 -17 -16 -22 -4 -41 16 -24 35 -27 57
-11 8 6 118 76 243 156 126 79 272 172 325 206 53 34 113 72 132 83 19 11 61
37 93 58 32 20 245 156 474 302 229 146 422 271 429 278 17 17 3 56 -22 60
-10 1 -74 -32 -142 -75z"/>
<path d="M13206 14963 c-1 -1 -20 -5 -42 -9 -268 -42 -480 -286 -488 -561 -9
-300 198 -557 487 -607 435 -76 790 317 676 748 -56 212 -253 387 -474 422
-40 6 -154 11 -159 7z"/>
<path d="M20668 14399 c-251 -38 -454 -197 -556 -436 -58 -137 -66 -335 -18
-476 34 -101 53 -138 112 -216 90 -120 236 -217 384 -256 70 -19 225 -25 301
-12 216 35 426 196 517 397 48 107 65 194 65 322 -2 322 -266 625 -588 675
-53 8 -169 9 -217 2z"/>
<path d="M15054 13968 c-4 -13 -9 -27 -10 -33 -1 -5 -19 -73 -39 -150 -20 -77
-38 -147 -40 -155 -2 -8 -37 -149 -79 -314 -42 -164 -76 -307 -76 -317 0 -10
10 -23 21 -30 18 -9 25 -8 39 7 12 14 106 353 134 489 1 6 5 19 9 30 3 11 8
31 11 45 2 14 9 45 16 70 7 25 14 52 16 60 1 8 19 77 39 154 38 148 37 166
-11 166 -15 0 -25 -8 -30 -22z"/>
<path d="M19675 13139 c-160 -71 -301 -134 -315 -141 -14 -6 -27 -12 -30 -13
-3 -1 -36 -16 -73 -33 -38 -18 -70 -32 -72 -32 -2 0 -43 -18 -90 -40 -47 -22
-88 -40 -90 -40 -1 0 -41 -17 -87 -39 -45 -21 -117 -53 -158 -71 -41 -18 -102
-45 -135 -60 -33 -15 -84 -38 -112 -50 -42 -18 -53 -27 -53 -46 0 -33 26 -44
69 -29 31 11 327 141 470 207 25 11 124 55 220 98 97 43 201 89 231 103 53 24
299 134 370 165 19 9 37 16 40 17 3 1 38 16 78 34 70 33 83 49 64 77 -4 6 -14
13 -22 16 -8 3 -146 -52 -305 -123z"/>
<path d="M17445 13029 c-22 -4 -55 -10 -73 -14 -131 -23 -323 -142 -426 -263
-83 -97 -163 -257 -181 -364 -3 -18 -8 -46 -11 -63 -3 -16 -5 -66 -5 -110 0
-318 182 -605 469 -741 212 -101 479 -104 688 -8 463 211 628 783 349 1204
-40 61 -137 164 -195 209 -71 54 -215 119 -315 142 -62 14 -246 19 -300 8z"/>
<path d="M14595 12903 c-168 -34 -334 -161 -409 -313 -20 -41 -39 -86 -42
-100 -18 -79 -22 -110 -22 -172 0 -94 21 -179 64 -265 102 -202 304 -325 530
-325 329 1 592 266 592 598 0 158 -60 299 -177 414 -146 145 -337 203 -536
163z"/>
<path d="M12645 12683 c-94 -19 -173 -63 -238 -132 -95 -100 -138 -210 -133
-344 4 -99 7 -112 44 -191 142 -301 546 -362 775 -117 109 117 153 295 110
446 -72 247 -308 390 -558 338z"/>
<path d="M14700 11562 c-20 -7 -29 -22 -25 -41 4 -20 12 -91 20 -161 3 -30 8
-71 11 -91 6 -43 12 -97 19 -165 2 -28 6 -64 9 -80 3 -16 7 -49 10 -74 23
-206 22 -200 40 -218 17 -18 56 -7 57 16 2 22 1 35 -16 175 -3 20 -7 54 -10
75 -2 20 -7 62 -10 92 -4 30 -8 66 -10 80 -2 14 -7 54 -10 90 -4 36 -9 74 -11
85 -2 11 -7 47 -10 80 -3 33 -7 69 -9 80 -2 11 -4 25 -4 32 -1 16 -32 32 -51
25z"/>
<path d="M20007 11470 c-351 -109 -468 -542 -220 -811 198 -213 532 -211 728
4 139 153 169 367 78 557 -34 69 -141 179 -209 213 -114 58 -262 72 -377 37z"/>
<path d="M19420 10424 c-92 -25 -161 -64 -230 -134 -104 -103 -152 -225 -145
-368 13 -296 266 -506 565 -469 183 23 358 177 405 356 82 316 -138 616 -460
626 -46 2 -103 -3 -135 -11z"/>
<path d="M20699 10416 c-218 -63 -363 -262 -354 -487 5 -137 51 -243 147 -339
93 -93 209 -140 345 -141 93 0 121 5 187 33 191 81 308 258 308 466 -2 328
-315 560 -633 468z"/>
<path d="M14988 10415 c-2 -1 -28 -5 -58 -8 -249 -24 -368 -126 -423 -360 -21
-91 -21 -100 -21 -1517 -1 -784 3 -1465 7 -1514 40 -449 204 -819 495 -1115
257 -261 549 -405 932 -458 112 -15 590 -7 619 12 4 2 27 6 51 10 87 13 299
84 400 134 153 77 296 181 406 296 l76 80 102 -100 c246 -242 527 -377 892
-429 101 -15 469 -16 564 -1 277 40 535 142 727 287 78 58 253 225 253 240 0
5 44 -35 98 -89 95 -94 212 -186 297 -233 22 -12 45 -26 50 -30 39 -32 291
-125 394 -145 171 -35 207 -39 411 -39 235 -1 299 4 438 34 251 53 438 138
637 289 79 60 232 214 275 276 19 28 40 56 47 63 12 13 62 96 116 192 77 140
160 402 183 580 2 19 6 42 9 50 10 38 17 263 20 700 2 261 6 491 9 510 2 19 7
64 10 99 11 119 18 166 38 266 11 55 22 111 24 125 9 50 43 167 72 248 l30 84
-47 20 c-113 49 -302 85 -427 83 -287 -7 -444 -87 -513 -261 -53 -135 -54
-152 -56 -969 -1 -418 -5 -789 -9 -825 -23 -215 -62 -395 -112 -513 -137 -325
-371 -482 -719 -481 -199 1 -363 61 -496 181 -130 119 -238 320 -292 543 -43
177 -52 271 -52 555 0 206 7 364 20 450 2 17 9 64 14 105 6 41 13 86 16 100 3
14 8 41 11 60 11 64 61 254 77 293 9 20 14 37 12 37 -2 0 4 20 15 45 23 53 26
50 -90 87 -312 101 -641 71 -788 -71 -53 -50 -95 -139 -118 -246 -14 -67 -18
-147 -20 -480 -4 -625 -12 -762 -57 -960 -80 -352 -258 -577 -521 -660 -199
-62 -431 -50 -603 31 -220 103 -379 335 -452 655 -42 184 -50 286 -47 604 2
165 6 311 9 325 3 14 9 59 12 100 19 192 65 413 126 593 10 31 19 61 19 66 0
5 -42 23 -93 40 -96 32 -101 34 -177 46 -25 4 -54 9 -65 12 -31 6 -194 5 -250
-2 -135 -17 -262 -71 -322 -136 -45 -50 -84 -149 -109 -279 -3 -19 -8 -231
-10 -470 -2 -415 -9 -656 -18 -710 -2 -14 -7 -46 -10 -71 -19 -136 -58 -281
-102 -377 -13 -29 -24 -55 -24 -57 0 -15 -96 -151 -137 -193 -98 -102 -236
-175 -383 -202 -92 -18 -290 -16 -380 4 -199 42 -370 177 -484 381 -65 116
-134 330 -152 470 -3 28 -8 58 -10 68 -17 92 -26 2213 -10 2457 10 140 15 207
21 255 2 22 7 63 10 90 16 138 63 340 111 481 13 39 24 75 24 81 0 14 -123 59
-229 84 -69 16 -282 33 -293 24z"/>
<path d="M12338 9055 c-2 -1 -43 -6 -93 -9 -120 -8 -151 -13 -275 -43 -395
-95 -707 -317 -944 -672 -102 -153 -209 -409 -241 -576 -5 -22 -9 -44 -11 -50
-7 -24 -12 -54 -19 -110 -4 -33 -10 -71 -12 -85 -3 -14 -6 -117 -8 -230 -3
-209 8 -345 40 -499 9 -42 18 -86 21 -99 13 -64 80 -248 126 -341 147 -305
374 -552 653 -712 158 -91 384 -164 570 -184 33 -4 78 -8 99 -11 21 -2 170 -5
331 -5 l293 -2 -10 -35 c-41 -149 -163 -396 -266 -541 -69 -98 -216 -254 -312
-333 -337 -277 -793 -382 -1230 -283 -353 79 -639 271 -874 585 -162 216 -291
492 -342 735 -27 124 -33 163 -47 298 -17 161 -13 472 8 675 9 84 16 138 21
177 9 70 45 248 65 320 11 39 22 77 24 85 2 8 13 42 24 74 12 33 21 62 21 67
0 8 -207 77 -254 85 -130 20 -189 22 -319 10 -91 -8 -150 -23 -223 -57 -129
-60 -189 -160 -222 -369 -17 -107 -7 -1119 12 -1215 2 -11 7 -40 10 -65 21
-150 88 -400 143 -530 134 -314 296 -554 542 -800 234 -234 484 -401 766 -512
159 -63 248 -89 442 -127 257 -52 622 -62 913 -26 308 39 664 162 923 322 83
51 194 127 207 142 3 3 25 22 50 41 185 142 407 398 537 618 129 219 236 489
279 705 2 10 5 26 8 35 3 9 7 33 10 52 3 19 8 44 10 56 14 66 21 137 21 199
-1 104 -53 209 -164 327 l-44 47 -66 -51 c-76 -59 -125 -82 -236 -110 -75 -20
-108 -21 -520 -22 -519 0 -539 2 -701 80 -70 34 -175 122 -232 195 -122 156
-210 409 -239 684 -20 193 -7 576 23 705 3 14 8 35 10 46 10 56 58 205 85 266
115 263 284 419 516 478 133 34 403 29 566 -11 148 -36 261 -103 375 -224 90
-94 148 -192 193 -329 28 -84 42 -112 56 -114 25 -4 153 40 206 71 53 32 121
98 142 140 41 82 51 225 24 342 -60 259 -298 475 -664 605 -85 29 -172 54
-230 64 -16 3 -41 8 -55 11 -14 3 -41 8 -60 10 -19 3 -48 8 -65 10 -76 12
-378 28 -387 20z"/>
<path d="M21357 4153 c-226 -356 -217 -339 -217 -409 l0 -64 83 -1 c192 -1
208 -14 213 -161 l3 -88 -227 2 -227 3 0 373 0 372 -71 0 -71 0 0 -445 0 -445
66 -1 c64 0 648 0 664 1 5 0 7 82 5 183 l-3 184 -30 49 c-37 60 -89 90 -171
101 l-61 8 93 145 94 145 -29 25 c-16 14 -43 33 -60 43 l-30 18 -24 -38z"/>
<path d="M16142 3735 l0 -445 117 -1 c278 -3 313 2 359 52 l21 22 28 -28 c16
-15 39 -32 53 -37 28 -11 766 -14 828 -3 22 3 55 19 73 35 l34 28 33 -31 33
-32 491 -3 490 -3 -4 158 c-6 183 -18 228 -78 291 -60 62 -99 77 -205 77 -102
-1 -143 -16 -228 -87 l-49 -41 2 29 c5 65 6 64 -70 64 -69 0 -70 0 -71 -27 -1
-16 -1 -94 -1 -175 l-1 -148 -117 0 c-182 0 -191 6 -204 137 -7 71 -49 156
-95 194 -108 89 -294 75 -414 -31 -19 -16 -36 -30 -38 -30 -2 0 -4 107 -4 237
l0 238 -72 3 -71 3 0 -358 c0 -197 -1 -366 -1 -375 -1 -16 -13 -18 -110 -18
-59 0 -122 5 -138 10 -53 19 -58 42 -62 308 l-1 32 -70 0 -70 0 0 -158 c0
-112 -4 -163 -13 -175 -11 -15 -27 -17 -122 -15 l-110 3 0 373 0 372 -71 0
-71 0 -1 -445z m1328 -67 c36 -22 60 -73 67 -140 9 -99 10 -98 -218 -98 -217
0 -210 -4 -164 93 37 80 95 132 175 158 33 11 113 3 140 -13z m1019 -5 c40
-29 60 -80 63 -158 l3 -70 -202 -3 -203 -2 0 22 c0 67 79 172 161 214 53 27
138 26 178 -3z"/>
<path d="M19380 3805 l0 -375 -78 0 -79 0 0 250 c0 138 -2 252 -5 255 -5 6
-58 8 -110 6 l-28 -1 0 -255 0 -255 -128 0 -128 0 0 -70 1 -70 347 0 c271 0
348 3 349 13 1 15 1 848 0 865 -1 8 -22 12 -71 12 l-70 0 0 -375z"/>
<path d="M19720 3735 l0 -445 70 0 c60 0 70 3 71 18 1 23 1 820 0 850 -1 21
-5 22 -71 22 l-70 0 0 -445z"/>
<path d="M22500 3821 c0 -314 -2 -362 -16 -375 -12 -12 -38 -16 -115 -16 -153
0 -172 17 -183 157 -8 94 -29 146 -77 187 -53 45 -98 56 -222 56 l-106 0 1
-65 1 -65 81 0 c142 0 179 -36 180 -173 1 -59 -3 -80 -14 -87 -8 -5 -83 -10
-165 -10 l-150 0 -1 -70 0 -70 168 0 c178 0 216 7 254 48 l19 21 34 -29 c43
-38 73 -43 225 -39 122 4 125 4 164 36 l39 32 28 -29 c15 -16 42 -32 59 -36
37 -8 355 -8 363 0 4 4 8 831 4 879 -1 4 -32 7 -71 7 l-70 0 0 -375 0 -375
-109 0 c-100 0 -112 2 -136 23 -14 12 -29 38 -33 57 -5 19 -8 178 -7 353 l0
317 -72 0 -73 0 0 -359z"/>
<path d="M16550 4028 c-43 -46 -10 -118 55 -118 38 0 75 35 75 71 0 60 -88 92
-130 47z"/>
<path d="M21830 4028 c-43 -46 -10 -118 55 -118 38 0 75 35 75 71 0 60 -88 92
-130 47z"/>
<path d="M15705 3827 c-57 -19 -104 -57 -131 -103 -23 -39 -28 -59 -28 -113 0
-80 2 -85 37 -139 l28 -43 -112 3 -113 3 -2 85 c-3 129 -35 193 -117 237 -43
23 -307 33 -308 11 0 -7 -2 -110 -3 -228 -2 -118 -4 -223 -4 -232 -1 -10 -18
-36 -38 -57 -44 -50 -112 -74 -213 -76 -90 -2 -133 8 -186 43 -77 52 -95 137
-50 238 14 31 25 58 25 59 0 2 -26 17 -57 35 l-56 32 -19 -23 c-10 -13 -26
-47 -37 -74 -77 -204 21 -398 229 -451 97 -25 243 -15 335 22 113 45 188 134
210 252 2 9 4 88 4 175 l1 157 46 -4 c85 -8 97 -35 97 -223 l0 -123 376 2 376
3 0 68 1 67 -71 1 c-88 1 -106 4 -156 29 -82 42 -106 142 -48 199 34 34 34 34
138 35 58 1 74 4 76 16 17 122 17 117 -11 123 -47 9 -188 5 -219 -6z"/>
<path d="M20458 3700 c-100 -31 -144 -124 -109 -228 l18 -52 -42 0 -42 0 -1
-65 0 -65 197 0 197 0 -1 59 c0 33 -2 61 -5 64 -3 3 -32 7 -66 9 -69 6 -107
26 -124 68 -25 60 17 92 113 86 29 -2 47 1 48 8 0 6 2 18 4 26 17 82 17 87 -2
92 -32 8 -157 7 -185 -2z"/>
<path d="M10675 3223 c-145 -18 -299 -116 -368 -234 -51 -86 -66 -148 -62
-256 5 -198 94 -335 270 -419 188 -90 427 -49 579 100 96 95 137 196 137 342
0 92 -28 185 -77 255 -65 94 -199 186 -297 203 -48 9 -144 13 -182 9z"/>
<path d="M11945 3222 c-102 -11 -221 -64 -290 -129 -99 -93 -147 -201 -148
-332 -1 -107 7 -151 43 -227 79 -164 245 -265 438 -266 136 -1 237 35 343 123
114 95 161 200 161 354 0 145 -35 230 -139 338 -103 106 -252 156 -408 139z"/>
<path d="M14541 2943 c-52 -43 -20 -123 49 -123 43 0 82 40 76 77 -7 35 -40
63 -76 63 -15 0 -37 -8 -49 -17z"/>
<path d="M14733 2945 c-16 -11 -23 -26 -23 -51 0 -48 30 -76 77 -72 62 5 89
64 55 116 -14 22 -83 26 -109 7z"/>
</g>
</svg>
