<?xml version="1.0" standalone="no"?>
<!DOCTYPE svg PUBLIC "-//W3C//DTD SVG 20010904//EN"
 "http://www.w3.org/TR/2001/REC-SVG-20010904/DTD/svg10.dtd">
<svg version="1.0" xmlns="http://www.w3.org/2000/svg"
 width="4168.000000pt" height="4168.000000pt" viewBox="0 0 4168.000000 4168.000000"
 preserveAspectRatio="xMidYMid meet">
<metadata>
Created by potrace 1.14, written by Peter Selinger 2001-2017
</metadata>
<g transform="translate(0.000000,4168.000000) scale(0.100000,-0.100000)"
fill="#000000" stroke="none">
<path d="M9595 33716 c-57 -16 -96 -43 -131 -90 -105 -139 -54 -334 105 -402
20 -9 65 -16 101 -16 142 -2 247 97 258 242 6 82 -22 153 -80 206 -71 64 -163
85 -253 60z"/>
<path d="M11638 32389 c-173 -26 -311 -177 -322 -352 -17 -268 247 -470 499
-382 139 49 229 153 253 293 44 254 -175 479 -430 441z"/>
<path d="M9865 31340 c-90 -31 -102 -38 -155 -91 -95 -95 -131 -215 -104 -348
20 -97 66 -168 146 -227 139 -103 344 -96 472 16 189 166 171 465 -37 603 -96
64 -222 82 -322 47z"/>
<path d="M13750 30794 c-205 -52 -346 -226 -355 -439 -11 -265 183 -479 445
-490 104 -5 155 6 239 47 110 54 222 190 247 298 13 58 15 170 5 222 -26 122
-118 250 -227 314 -98 58 -240 77 -354 48z"/>
<path d="M31960 29373 c-122 -40 -198 -131 -201 -244 -3 -76 15 -129 61 -182
50 -57 114 -88 186 -91 78 -4 137 19 193 73 164 160 60 435 -169 446 -30 1
-62 0 -70 -2z"/>
<path d="M15636 29169 c-219 -54 -381 -194 -455 -393 -61 -164 -45 -361 41
-513 201 -355 677 -425 969 -142 130 126 190 278 183 469 -8 264 -170 476
-429 562 -69 23 -246 33 -309 17z"/>
<path d="M31500 28939 c-80 -33 -149 -61 -155 -63 -5 -2 -22 -8 -37 -14 -15
-6 -67 -27 -115 -47 -48 -20 -97 -40 -108 -45 -11 -5 -123 -50 -250 -101 -196
-78 -346 -139 -623 -251 -59 -24 -80 -60 -48 -84 14 -10 27 -8 74 10 54 22
524 212 822 333 74 30 241 98 370 150 129 52 242 102 252 111 20 21 7 62 -19
62 -10 -1 -83 -28 -163 -61z"/>
<path d="M31834 28812 c-13 -8 -18 -20 -114 -327 -39 -126 -75 -239 -80 -250
-5 -11 -12 -31 -15 -45 -4 -14 -36 -115 -72 -225 -35 -110 -66 -207 -68 -215
-2 -8 -24 -80 -50 -160 -96 -296 -117 -370 -111 -385 7 -18 50 -20 64 -2 6 7
23 51 37 97 27 87 104 330 239 750 41 129 87 273 101 320 15 47 33 105 41 130
16 48 70 216 84 262 13 41 -23 72 -56 50z"/>
<path d="M9850 28658 c-145 -25 -276 -121 -341 -249 -185 -367 143 -777 540
-675 241 62 389 296 347 549 -3 21 -21 71 -40 111 -87 188 -301 300 -506 264z"/>
<path d="M29625 28506 c-140 -43 -237 -146 -269 -286 -50 -218 99 -429 320
-457 33 -4 63 -6 67 -5 4 1 27 5 49 7 94 12 197 81 252 169 125 196 49 450
-163 549 -51 24 -80 31 -140 32 -42 2 -94 -3 -116 -9z"/>
<path d="M29157 27974 c-3 -4 -50 -26 -104 -49 -54 -23 -125 -54 -158 -70 -33
-15 -130 -58 -215 -97 -85 -38 -173 -78 -195 -88 -106 -49 -187 -85 -390 -175
-121 -53 -228 -105 -237 -114 -16 -15 -17 -18 -2 -39 8 -12 21 -22 28 -22 7 0
89 34 182 76 93 42 189 85 214 96 25 11 70 31 100 45 30 14 96 43 145 65 50
22 119 54 155 70 84 39 134 61 140 63 3 1 39 17 80 36 41 19 130 59 197 89 68
30 125 61 128 68 12 33 -43 70 -68 46z"/>
<path d="M27170 27443 c-128 -20 -254 -101 -324 -207 -60 -93 -80 -164 -78
-281 4 -248 218 -456 467 -456 433 0 641 522 327 821 -49 47 -151 102 -212
115 -42 9 -145 13 -180 8z"/>
<path d="M31091 27123 c-268 -68 -382 -380 -217 -596 159 -209 476 -200 619
18 96 147 80 339 -40 470 -89 97 -236 141 -362 108z"/>
<path d="M26334 26494 c-203 -119 -389 -228 -414 -241 -25 -14 -49 -29 -55
-33 -5 -4 -32 -20 -60 -35 -86 -48 -155 -94 -155 -105 0 -5 9 -19 20 -30 25
-25 -11 -41 325 155 143 84 274 161 292 171 68 40 377 220 412 240 42 24 54
66 23 83 -16 9 -80 -25 -388 -205z"/>
<path d="M17461 26608 c-347 -54 -608 -371 -594 -722 19 -475 479 -793 931
-645 294 97 485 370 477 684 -6 227 -101 416 -279 549 -147 111 -353 162 -535
134z"/>
<path d="M31064 26302 c-9 -6 -29 -87 -49 -192 -3 -14 -7 -36 -10 -50 -3 -14
-7 -34 -9 -45 -3 -11 -18 -85 -35 -165 -16 -80 -32 -156 -35 -170 -2 -14 -11
-57 -20 -95 -8 -39 -17 -82 -19 -95 -3 -14 -30 -144 -60 -290 -31 -146 -58
-276 -61 -290 -3 -14 -7 -36 -10 -50 -3 -14 -10 -48 -16 -76 -6 -28 -14 -64
-17 -80 -12 -54 -8 -86 10 -98 39 -25 58 16 91 199 5 27 63 307 71 345 4 18
43 203 49 234 3 11 14 65 25 120 12 54 23 109 25 122 3 13 7 32 10 42 3 9 7
33 10 52 3 19 30 151 60 294 41 191 53 264 45 277 -10 19 -35 25 -55 11z"/>
<path d="M24940 26269 c-141 -15 -269 -77 -371 -179 -90 -91 -151 -206 -173
-326 -12 -62 -7 -191 9 -254 109 -421 591 -607 946 -365 193 132 292 348 266
580 -16 142 -72 259 -172 361 -137 138 -313 202 -505 183z"/>
<path d="M10439 25971 c-111 -30 -195 -78 -278 -161 -83 -83 -127 -155 -160
-265 -126 -421 230 -841 665 -784 97 13 115 18 202 61 79 38 167 112 225 187
34 43 87 158 102 222 20 89 14 245 -13 329 -60 185 -217 342 -402 402 -90 29
-250 33 -341 9z"/>
<path d="M24323 25163 c-102 -95 -267 -249 -293 -273 -15 -14 -80 -74 -145
-135 -65 -60 -132 -123 -149 -140 -18 -16 -88 -82 -157 -145 -68 -63 -151
-140 -184 -172 -33 -31 -91 -86 -129 -121 -69 -65 -70 -65 -53 -90 29 -45 -1
-69 397 303 142 132 287 268 344 321 38 35 90 84 115 107 25 24 93 87 150 140
165 153 211 199 211 210 0 14 -29 42 -44 42 -6 0 -35 -21 -63 -47z"/>
<path d="M30495 24481 c-222 -62 -360 -250 -351 -474 6 -133 49 -232 141 -322
224 -220 613 -159 748 118 47 95 51 111 51 227 0 113 -21 179 -84 268 -65 94
-165 162 -275 189 -54 13 -174 10 -230 -6z"/>
<path d="M22588 24165 c-2 -2 -21 -5 -43 -8 -270 -39 -507 -258 -572 -529 -87
-363 128 -740 480 -843 90 -26 107 -28 207 -28 100 0 116 2 208 28 335 97 552
456 486 804 -54 286 -282 515 -564 567 -36 7 -197 14 -202 9z"/>
<path d="M18555 23550 c-267 -28 -514 -183 -647 -409 -32 -53 -85 -175 -92
-211 -2 -14 -9 -47 -15 -74 -12 -52 -16 -231 -6 -281 22 -110 40 -168 76 -241
147 -301 437 -483 767 -482 113 0 181 11 276 44 292 102 509 353 565 654 10
56 9 275 -2 319 -51 200 -133 342 -272 468 -124 113 -292 190 -452 208 -92 11
-131 11 -198 5z"/>
<path d="M13010 23390 c-104 -25 -119 -30 -170 -58 -235 -130 -371 -341 -384
-596 -22 -461 397 -819 849 -725 515 108 734 720 406 1133 -97 122 -259 223
-401 251 -79 15 -225 13 -300 -5z"/>
<path d="M30343 23398 c-6 -7 -20 -33 -31 -58 -11 -25 -48 -103 -82 -175 -34
-71 -75 -157 -90 -190 -40 -87 -91 -195 -150 -320 -29 -60 -63 -135 -77 -165
-14 -30 -57 -119 -95 -199 -76 -159 -82 -194 -35 -199 25 -3 30 2 66 80 21 46
59 126 84 178 90 190 144 306 167 355 13 28 47 100 76 160 28 61 71 151 94
200 22 50 64 139 93 198 39 85 49 112 40 125 -13 22 -47 27 -60 10z"/>
<path d="M22126 22768 c-8 -13 -48 -81 -89 -153 -126 -220 -365 -633 -396
-685 -11 -19 -24 -42 -28 -50 -4 -8 -45 -80 -90 -159 -162 -279 -165 -285
-117 -297 31 -8 33 -5 77 71 18 33 78 137 132 230 175 303 207 358 265 460 31
55 81 141 110 190 29 50 64 110 78 135 37 66 111 193 124 211 6 9 8 28 4 42
-8 35 -49 37 -70 5z"/>
<path d="M29295 22033 c-96 -16 -141 -30 -214 -65 -150 -71 -286 -235 -320
-383 -19 -83 -21 -97 -22 -165 -1 -85 7 -132 33 -205 65 -181 197 -313 378
-380 146 -54 357 -40 490 33 176 96 293 260 326 458 22 130 -12 295 -87 420
-81 133 -262 256 -412 279 -48 7 -149 12 -172 8z"/>
<path d="M20907 21414 c-1 -1 -31 -4 -67 -6 -321 -25 -615 -254 -721 -561
-110 -322 -36 -650 201 -887 122 -121 265 -199 430 -235 96 -20 304 -13 398
14 312 91 532 326 607 649 22 93 17 282 -9 382 -81 311 -322 549 -627 619 -71
16 -204 32 -212 25z"/>
<path d="M15835 21373 c-245 -54 -400 -147 -532 -318 -70 -91 -136 -240 -149
-332 -3 -26 -8 -51 -11 -56 -7 -12 -6 -180 2 -228 49 -310 267 -568 561 -663
175 -57 372 -51 550 15 107 40 197 101 289 193 268 271 313 695 106 1017 -116
181 -312 317 -526 365 -36 8 -262 14 -290 7z"/>
<path d="M28515 20839 c-110 -72 -348 -224 -530 -339 -896 -568 -970 -617
-973 -639 -3 -21 13 -51 27 -51 4 0 63 36 131 79 69 44 173 110 233 148 59 37
127 80 150 95 23 15 65 41 92 58 55 34 213 135 369 235 281 180 609 389 678
431 43 26 79 52 81 58 9 23 -12 56 -35 55 -13 -1 -113 -59 -223 -130z"/>
<path d="M18705 20629 c-385 -37 -632 -443 -489 -809 29 -76 103 -179 166
-231 146 -121 314 -166 496 -132 256 49 452 257 479 512 8 81 8 82 -1 155 -17
125 -69 232 -163 329 -125 130 -301 193 -488 176z"/>
<path d="M26144 20064 c-273 -47 -501 -262 -565 -532 -17 -72 -19 -219 -4
-297 51 -267 251 -480 515 -551 98 -26 263 -24 365 5 176 49 319 158 416 316
27 43 49 86 49 95 0 9 4 20 8 25 13 15 30 82 38 150 28 219 -38 423 -189 583
-159 168 -400 246 -633 206z"/>
<path d="M20557 19653 c-4 -7 -9 -26 -23 -88 -1 -5 -23 -89 -47 -185 -117
-452 -177 -692 -177 -709 0 -24 26 -40 51 -34 11 3 19 7 19 10 0 2 14 57 31
121 17 64 33 128 35 142 3 14 7 32 10 40 3 8 19 69 36 135 16 66 31 127 33
135 107 410 105 401 93 423 -9 17 -53 24 -61 10z"/>
<path d="M25310 18868 c-85 -37 -179 -79 -208 -93 -29 -14 -55 -25 -57 -25 -2
0 -35 -14 -72 -31 -38 -17 -129 -58 -203 -91 -74 -33 -153 -68 -175 -78 -22
-10 -103 -46 -180 -80 -77 -34 -160 -71 -185 -82 -25 -12 -74 -34 -110 -50
-36 -16 -86 -39 -112 -50 -37 -17 -48 -27 -48 -44 0 -22 23 -42 45 -39 16 3
67 25 243 106 35 16 65 29 67 29 3 0 38 15 79 34 41 19 107 49 147 66 41 18
103 46 139 62 36 17 117 53 180 80 63 28 148 66 188 84 41 19 75 34 77 34 2 0
41 17 87 39 45 21 131 60 191 86 104 46 120 61 99 91 -17 24 -45 18 -192 -48z"/>
<path d="M22937 18700 c-241 -41 -461 -195 -585 -411 -38 -67 -88 -215 -97
-288 -29 -235 33 -456 179 -636 57 -70 100 -108 186 -165 269 -180 634 -178
908 3 26 17 86 70 133 117 73 74 94 103 137 191 69 140 92 234 93 377 2 304
-177 594 -451 732 -55 28 -145 60 -185 66 -16 3 -37 8 -45 11 -24 9 -221 11
-273 3z"/>
<path d="M20110 18574 c-220 -41 -394 -194 -461 -404 -27 -85 -33 -224 -13
-310 32 -140 127 -282 243 -358 111 -74 207 -104 336 -104 164 0 300 58 420
177 120 119 178 268 171 440 -7 164 -69 300 -190 412 -138 127 -324 182 -506
147z"/>
<path d="M18165 18359 c-229 -40 -401 -248 -394 -479 5 -160 94 -315 229 -397
97 -59 257 -83 360 -52 25 7 47 13 50 13 29 5 113 59 159 101 95 89 147 207
149 338 2 267 -199 475 -468 482 -25 0 -63 -2 -85 -6z"/>
<path d="M20185 17224 c-8 -9 -13 -25 -10 -37 2 -12 9 -67 16 -122 6 -55 12
-111 14 -125 2 -14 6 -47 9 -75 3 -27 10 -88 16 -135 6 -47 13 -105 16 -130
17 -165 26 -200 50 -206 41 -10 46 2 40 90 -3 44 -8 90 -10 101 -2 11 -7 49
-11 85 -4 36 -9 76 -10 90 -2 14 -6 45 -9 70 -3 25 -8 70 -11 100 -3 30 -8 66
-10 80 -2 14 -7 52 -10 85 -10 99 -18 127 -42 136 -16 6 -27 3 -38 -7z"/>
<path d="M25509 17140 c-118 -37 -206 -103 -274 -206 -60 -90 -80 -164 -78
-295 1 -121 58 -243 155 -335 220 -210 589 -165 754 92 126 196 99 450 -66
615 -131 132 -322 182 -491 129z"/>
<path d="M24920 16093 c-92 -23 -161 -63 -231 -132 -103 -103 -150 -222 -144
-363 5 -100 10 -122 51 -206 128 -263 467 -357 710 -196 188 124 269 350 204
561 -27 89 -61 145 -127 209 -53 52 -166 117 -228 130 -59 12 -181 11 -235 -3z"/>
<path d="M26234 16099 c-10 -3 -37 -12 -59 -19 -64 -20 -150 -77 -202 -133
-178 -195 -172 -497 14 -683 157 -157 385 -191 583 -87 169 88 262 244 262
437 -1 214 -131 396 -333 467 -65 23 -222 34 -265 18z"/>
<path d="M20487 16084 c-1 -1 -27 -4 -57 -7 -277 -25 -405 -158 -438 -457 -9
-87 -9 -2810 1 -2925 44 -531 278 -977 673 -1285 20 -16 70 -49 139 -92 156
-97 410 -181 620 -203 28 -3 68 -8 90 -11 48 -5 270 -5 340 1 105 9 185 19
235 31 14 3 36 8 50 10 54 10 208 58 270 85 189 82 396 228 513 361 l49 54 86
-87 c255 -255 552 -398 932 -447 72 -9 426 -9 512 0 229 25 536 135 700 250
97 68 192 151 270 235 l46 50 54 -59 c63 -71 206 -188 303 -250 142 -90 319
-161 497 -198 150 -31 192 -35 403 -35 180 0 243 4 355 21 66 10 75 12 120 24
25 7 50 13 55 14 59 13 176 59 272 106 471 232 787 687 878 1260 23 146 26
237 30 760 2 267 6 496 8 510 3 14 8 61 12 104 4 43 8 86 10 95 1 9 6 39 9 66
12 86 16 107 42 224 14 63 30 126 36 140 5 14 11 33 13 41 2 8 15 47 28 86
l25 71 -42 14 c-22 7 -45 16 -51 19 -9 6 -26 12 -85 25 -168 40 -269 48 -408
33 -282 -32 -408 -155 -448 -438 -4 -25 -7 -378 -9 -785 -2 -660 -5 -827 -20
-915 -2 -14 -7 -50 -10 -80 -22 -191 -113 -433 -207 -553 -116 -146 -277 -238
-463 -263 -73 -10 -204 -11 -245 -3 -19 4 -49 10 -67 12 -74 11 -203 67 -267
116 -60 46 -167 168 -210 241 -74 125 -145 324 -163 455 -2 16 -6 40 -8 52
-20 92 -28 538 -12 713 14 160 16 185 23 225 4 22 8 47 9 55 15 115 63 309
109 446 l34 101 -37 12 c-195 64 -295 83 -430 82 -266 -2 -428 -78 -502 -236
-56 -120 -62 -172 -65 -610 -3 -407 -10 -700 -19 -745 -3 -14 -7 -44 -10 -68
-3 -24 -9 -62 -15 -85 -5 -23 -11 -57 -15 -74 -10 -61 -57 -198 -92 -268 -61
-123 -90 -164 -177 -247 -227 -215 -659 -245 -934 -66 -74 48 -183 163 -231
243 -49 81 -105 226 -135 347 -26 106 -31 133 -41 228 -3 30 -8 73 -10 95 -6
50 -6 445 -1 500 2 22 7 80 11 129 4 50 9 99 11 110 2 12 6 44 9 71 14 127 53
304 107 478 16 54 28 101 25 104 -3 2 -45 18 -94 34 -246 83 -534 80 -705 -7
-120 -61 -172 -147 -214 -354 -4 -19 -8 -237 -10 -485 -3 -540 -10 -697 -39
-832 -26 -124 -38 -169 -61 -233 -111 -310 -288 -473 -578 -530 -146 -29 -360
-13 -485 37 -317 125 -511 485 -547 1013 -15 226 -6 2401 11 2488 2 10 6 49
10 87 3 39 8 82 11 98 2 15 6 42 9 60 16 96 27 156 36 192 6 22 15 58 20 80 6
22 24 84 41 138 17 54 28 100 25 103 -11 11 -178 65 -247 80 -62 13 -263 27
-273 18z"/>
<path d="M17797 14724 c-1 -1 -38 -5 -82 -9 -44 -4 -82 -8 -85 -10 -3 -1 -27
-6 -55 -9 -165 -22 -384 -103 -548 -204 -377 -231 -647 -622 -745 -1083 -39
-181 -46 -255 -47 -474 0 -104 3 -226 8 -270 7 -74 9 -94 23 -165 2 -14 7 -41
10 -60 13 -90 82 -297 138 -415 49 -104 125 -229 193 -318 72 -94 228 -247
323 -317 187 -137 479 -250 710 -274 30 -4 78 -9 105 -12 28 -3 177 -6 333 -7
156 0 285 -3 287 -7 6 -10 -82 -234 -129 -329 -183 -362 -467 -639 -806 -784
-91 -38 -242 -82 -325 -92 -27 -4 -61 -9 -75 -11 -35 -5 -234 -5 -300 1 -46 4
-117 16 -237 41 -47 9 -201 68 -268 101 -398 200 -725 619 -864 1107 -60 209
-85 399 -85 641 1 131 11 394 18 431 2 10 7 51 11 89 4 39 9 79 11 90 2 10 6
37 9 60 12 84 58 274 92 378 19 60 33 110 31 112 -5 5 -188 66 -211 71 -120
24 -175 30 -247 28 -272 -9 -422 -73 -495 -214 -30 -59 -47 -120 -65 -235 -9
-62 -7 -1084 2 -1120 3 -11 9 -45 12 -76 4 -31 8 -65 10 -75 2 -11 7 -39 11
-64 14 -85 55 -240 95 -357 88 -257 235 -512 430 -748 70 -84 298 -300 391
-370 303 -227 659 -379 1019 -435 41 -6 86 -13 100 -16 70 -12 215 -18 390
-18 197 0 286 6 435 29 17 3 48 7 70 11 51 8 241 57 320 83 604 197 1145 693
1397 1281 33 76 83 211 93 250 3 8 14 49 25 90 45 165 73 331 74 440 1 65 -4
84 -31 143 -35 73 -72 126 -136 193 l-39 42 -62 -47 c-77 -58 -138 -87 -240
-114 -76 -19 -109 -21 -506 -21 -234 0 -450 3 -480 7 -244 29 -456 192 -572
437 -34 73 -85 217 -92 264 -4 21 -8 41 -10 45 -3 3 -7 25 -10 47 -4 22 -8 50
-11 63 -28 144 -28 553 0 741 29 196 117 431 212 564 121 170 295 279 480 301
56 6 319 8 348 2 11 -3 45 -8 75 -12 299 -40 545 -262 649 -587 19 -61 35 -94
45 -96 25 -5 168 45 217 77 146 93 202 246 165 449 -22 119 -103 263 -200 357
-36 36 -149 120 -201 151 -138 84 -383 172 -545 198 -19 3 -48 8 -65 11 -112
19 -219 28 -373 29 -67 1 -124 1 -125 0z"/>
<path d="M26853 9818 c-204 -322 -213 -339 -213 -405 l0 -63 93 -1 c182 -1
199 -14 203 -161 l3 -88 -227 0 -227 0 0 375 0 375 -71 0 -71 0 0 -445 c0
-245 3 -445 6 -446 3 0 168 -1 366 -2 l360 0 3 162 c1 89 -2 179 -8 200 -24
92 -93 146 -197 157 l-61 7 30 46 c16 25 58 91 93 146 l64 100 -29 25 c-15 14
-42 33 -59 43 l-30 18 -28 -43z"/>
<path d="M21642 9418 c0 -238 2 -440 4 -448 3 -13 31 -15 186 -13 101 1 192 4
203 7 11 2 23 5 27 5 4 1 23 15 42 32 l35 30 32 -30 c17 -17 48 -34 68 -37 42
-8 763 -9 802 -1 35 7 82 32 99 52 12 14 17 13 47 -17 l34 -33 490 -3 490 -3
-2 143 c-1 109 -5 157 -20 205 -38 121 -145 190 -282 181 -61 -4 -155 -38
-188 -69 -8 -8 -26 -24 -41 -37 l-25 -23 0 23 c-1 72 3 68 -73 68 -60 0 -70
-3 -71 -17 0 -10 -1 -89 -1 -176 l-1 -158 -121 2 c-114 1 -185 15 -187 36 -12
139 -28 196 -73 255 -53 69 -110 93 -221 93 -78 0 -97 -4 -142 -28 -29 -15
-68 -40 -86 -57 -19 -16 -36 -30 -39 -30 -2 0 -3 108 -3 240 l1 240 -72 0 -72
0 0 -347 c0 -192 0 -360 -1 -375 l-1 -28 -109 0 c-188 0 -199 12 -197 216 l1
134 -72 0 -73 0 0 -156 c0 -88 -4 -164 -10 -175 -10 -17 -22 -19 -123 -19
l-112 0 0 375 0 375 -71 0 -71 0 -1 -432z m1328 -80 c12 -7 30 -27 40 -43 25
-40 36 -140 19 -172 -12 -23 -13 -23 -206 -23 -222 0 -215 -4 -168 93 51 107
145 170 242 162 29 -2 61 -10 73 -17z m1018 -5 c41 -30 63 -83 65 -160 l2 -68
-204 -3 -204 -2 6 36 c13 81 100 182 180 210 47 17 124 10 155 -13z"/>
<path d="M24880 9475 l0 -375 -79 0 -78 0 0 253 1 252 -62 5 c-34 3 -67 4 -72
2 -6 -2 -10 -97 -10 -258 l0 -253 -127 -3 -128 -3 0 -67 -1 -68 348 0 c325 0
348 1 349 18 1 24 1 844 0 860 -1 8 -22 12 -71 12 l-70 0 0 -375z"/>
<path d="M25220 9405 l0 -446 72 3 71 3 0 425 c-1 234 -2 433 -2 443 -1 14
-11 17 -71 17 l-70 0 0 -445z"/>
<path d="M28000 9491 c0 -317 -2 -361 -16 -376 -13 -13 -36 -15 -118 -14 -151
2 -169 18 -180 158 -14 178 -92 241 -300 241 l-104 0 0 -65 0 -65 77 -1 c92
-1 105 -3 137 -23 35 -24 50 -68 49 -153 0 -54 -4 -76 -15 -83 -8 -5 -82 -10
-165 -10 l-150 0 0 -70 0 -70 175 0 c161 0 178 2 210 21 19 12 39 28 43 35 6
11 17 7 49 -18 l40 -33 153 0 153 0 40 32 39 32 28 -29 c16 -17 44 -33 63 -36
28 -6 289 -9 352 -5 13 1 15 57 14 443 l-2 443 -71 3 -71 3 0 -376 0 -376
-111 2 c-126 1 -154 15 -168 79 -4 19 -7 178 -6 353 l0 317 -72 0 -73 0 0
-359z"/>
<path d="M22052 9700 c-47 -44 -13 -120 53 -120 67 0 99 74 52 118 -29 28 -76
28 -105 2z"/>
<path d="M27332 9700 c-24 -23 -29 -67 -9 -93 6 -10 29 -20 50 -24 72 -11 115
67 64 115 -29 28 -76 28 -105 2z"/>
<path d="M21197 9494 c-57 -20 -94 -50 -124 -102 -23 -39 -28 -58 -28 -118 1
-63 4 -78 32 -123 l32 -51 -112 0 -113 0 1 73 c2 141 -34 215 -124 255 -35 16
-68 20 -172 21 -99 2 -129 -1 -130 -11 0 -7 -1 -115 -2 -239 -2 -248 -3 -253
-69 -302 -50 -38 -122 -55 -213 -52 -95 4 -148 24 -192 72 -51 55 -56 139 -13
224 11 21 20 40 20 43 0 2 -25 19 -56 37 -55 31 -57 32 -72 13 -33 -44 -64
-131 -67 -192 -8 -143 58 -252 192 -318 55 -27 64 -28 193 -28 151 0 213 16
292 77 101 79 128 159 128 385 l0 154 48 -6 c61 -7 92 -40 93 -99 0 -23 1 -87
2 -142 l2 -100 375 -3 376 -2 -1 67 0 68 -90 6 c-117 8 -170 32 -201 91 -16
32 -18 76 -4 113 16 42 88 69 166 61 71 -7 67 -11 79 85 4 39 2 47 -12 51 -40
11 -200 5 -236 -8z"/>
<path d="M25958 9370 c-99 -30 -144 -124 -108 -229 l17 -51 -42 0 -42 0 1 -62
1 -63 195 -3 195 -2 0 64 1 64 -66 4 c-75 6 -112 25 -130 68 -25 60 15 93 107
86 57 -4 52 -11 68 85 7 36 6 36 -32 42 -51 9 -132 7 -165 -3z"/>
<path d="M16140 8884 c-171 -35 -313 -150 -371 -302 -15 -39 -23 -85 -25 -147
-6 -149 33 -253 131 -351 81 -82 141 -114 260 -138 259 -53 534 117 585 360
36 173 -12 337 -133 451 -124 117 -278 161 -447 127z"/>
<path d="M17450 8893 c-120 -16 -245 -73 -304 -137 -100 -112 -136 -192 -141
-317 -5 -146 38 -262 135 -359 195 -195 515 -193 716 5 123 120 165 280 123
459 -35 146 -183 294 -334 335 -43 11 -154 19 -195 14z"/>
<path d="M20039 8612 c-15 -13 -22 -30 -22 -52 0 -88 127 -94 147 -7 14 59
-73 100 -125 59z"/>
<path d="M20230 8610 c-28 -28 -27 -84 2 -104 77 -54 165 36 103 104 -24 26
-79 26 -105 0z"/>
</g>
</svg>
