<?xml version="1.0" standalone="no"?>
<!DOCTYPE svg PUBLIC "-//W3C//DTD SVG 20010904//EN"
 "http://www.w3.org/TR/2001/REC-SVG-20010904/DTD/svg10.dtd">
<svg version="1.0" xmlns="http://www.w3.org/2000/svg"
 width="500.000000pt" height="500.000000pt" viewBox="0 0 500.000000 500.000000"
 preserveAspectRatio="xMidYMid meet">
<metadata>
Created by potrace 1.11, written by Peter Selinger 2001-2013
</metadata>
<g transform="translate(0.000000,500.000000) scale(0.100000,-0.100000)"
fill="#000000" stroke="none">
<path d="M3291 3977 c-15 -18 -5 -44 19 -50 23 -6 43 15 38 40 -4 22 -41 29
-57 10z"/>
<path d="M3038 3819 c-21 -12 -24 -59 -6 -77 18 -18 45 -15 67 7 25 25 17 59
-16 72 -29 11 -24 11 -45 -2z"/>
<path d="M3252 3684 c-38 -26 -19 -83 29 -84 20 0 49 31 49 53 0 14 -35 47
-50 47 -3 0 -16 -7 -28 -16z"/>
<path d="M2750 3610 c-39 -39 -12 -100 46 -100 50 0 73 75 32 104 -30 21 -54
20 -78 -4z"/>
<path d="M490 3435 c-16 -19 -3 -55 19 -55 13 0 24 -19 41 -70 13 -38 25 -68
27 -66 7 6 -28 126 -38 132 -5 3 -3 13 3 24 22 35 -25 67 -52 35z"/>
<path d="M2533 3422 c-32 -5 -61 -50 -56 -87 6 -45 39 -68 87 -62 46 6 66 28
66 72 0 56 -37 86 -97 77z"/>
<path d="M568 3388 c6 -6 22 -13 34 -15 12 -2 37 -12 56 -23 18 -11 41 -20 50
-20 15 1 15 2 -2 12 -20 11 -136 58 -145 58 -3 0 0 -5 7 -12z"/>
<path d="M3237 3331 c-39 -66 40 -126 92 -70 34 37 8 99 -42 99 -25 0 -37 -6
-50 -29z"/>
<path d="M766 3319 c-31 -44 25 -99 65 -63 25 22 24 60 0 74 -30 15 -48 12
-65 -11z"/>
<path d="M885 3254 c11 -8 31 -17 45 -21 14 -3 34 -11 45 -17 31 -19 55 -26
55 -17 0 5 -21 16 -47 26 -27 10 -57 24 -68 32 -28 19 -56 17 -30 -3z"/>
<path d="M584 3196 c8 -19 11 -36 6 -38 -13 -5 -21 -51 -11 -67 12 -19 67 -23
81 -6 6 7 10 26 8 42 -2 22 -10 30 -35 37 -23 7 -33 17 -37 38 -3 15 -10 28
-16 28 -6 0 -5 -13 4 -34z"/>
<path d="M1087 3199 c-28 -16 -37 -50 -21 -81 8 -16 18 -28 22 -29 4 0 15 -2
24 -4 26 -5 60 27 63 58 2 19 -4 33 -22 47 -29 23 -40 24 -66 9z"/>
<path d="M1180 3111 c0 -6 19 -20 42 -32 23 -12 48 -28 56 -35 21 -22 37 -16
17 6 -10 11 -23 20 -29 20 -6 0 -28 11 -49 25 -20 14 -37 21 -37 16z"/>
<path d="M2273 3082 c-33 -25 -43 -62 -28 -97 16 -41 37 -56 80 -59 30 -3 42
2 66 28 40 43 39 86 -2 120 -36 30 -84 34 -116 8z"/>
<path d="M631 3050 c-2 -25 32 -160 40 -160 4 0 1 26 -7 58 -19 80 -32 120
-33 102z"/>
<path d="M1342 3037 c-61 -64 11 -162 89 -121 52 27 58 88 11 124 -33 27 -74
25 -100 -3z"/>
<path d="M3175 3020 c-52 -19 -68 -88 -29 -127 37 -37 122 -23 126 21 1 12 2
30 3 41 2 29 -12 53 -37 61 -35 12 -41 12 -63 4z"/>
<path d="M1470 2924 c0 -13 141 -146 148 -140 2 3 -10 19 -29 37 -19 17 -53
49 -76 72 -24 23 -43 37 -43 31z"/>
<path d="M671 2864 c0 -11 3 -14 6 -6 3 7 2 16 -1 19 -3 4 -6 -2 -5 -13z"/>
<path d="M657 2823 c-52 -26 -25 -103 36 -103 68 0 78 97 11 112 -11 3 -33 -1
-47 -9z"/>
<path d="M1662 2788 c-23 -6 -38 -19 -49 -42 -28 -60 0 -114 65 -123 54 -7 87
14 96 62 14 71 -42 122 -112 103z"/>
<path d="M2150 2713 c-26 -8 -62 -62 -65 -98 -3 -28 3 -42 29 -70 19 -19 43
-36 55 -36 11 -1 27 -2 34 -2 28 -1 67 24 82 52 25 50 19 89 -19 127 -33 33
-69 42 -116 27z"/>
<path d="M725 2682 c12 -40 67 -153 72 -148 2 2 -3 18 -12 35 -8 17 -13 31
-10 31 4 0 -42 89 -53 100 -2 3 -1 -6 3 -18z"/>
<path d="M2819 2671 c-38 -38 -38 -79 -1 -119 23 -24 35 -30 65 -28 52 4 87
39 87 85 0 41 -5 51 -40 74 -37 26 -77 21 -111 -12z"/>
<path d="M1750 2613 c1 -5 12 -26 25 -48 14 -22 32 -54 40 -72 13 -28 35 -53
35 -39 0 6 -24 49 -67 124 -24 40 -33 51 -33 35z"/>
<path d="M813 2520 c-29 -12 -41 -37 -38 -79 4 -46 26 -65 76 -65 55 0 84 32
75 83 -3 19 -12 41 -20 49 -17 18 -63 23 -93 12z"/>
<path d="M1859 2438 c-29 -12 -59 -59 -59 -94 0 -64 70 -122 130 -109 33 7 77
54 86 92 9 34 -21 90 -57 109 -32 16 -62 17 -100 2z"/>
<path d="M2505 2442 c-83 -19 -107 -118 -43 -174 43 -39 95 -38 137 1 32 30
39 65 25 119 -10 35 -74 64 -119 54z"/>
<path d="M994 2340 c107 -70 146 -92 146 -80 0 6 -3 10 -8 10 -4 0 -45 25 -91
55 -46 30 -93 57 -105 61 -11 3 15 -18 58 -46z"/>
<path d="M2128 2333 c-39 -45 -27 -104 24 -122 74 -26 131 60 78 117 -26 27
-80 29 -102 5z"/>
<path d="M4328 2319 c-22 -13 -24 -62 -2 -83 8 -9 18 -16 22 -16 4 0 7 -137 7
-305 0 -173 -4 -305 -9 -305 -16 0 -35 -34 -36 -62 0 -36 24 -48 102 -48 101
0 138 43 83 94 l-25 23 0 298 0 298 25 23 c56 52 17 94 -85 94 -36 0 -73 -5
-82 -11z"/>
<path d="M3051 2301 c-21 -21 -21 -30 -21 -396 0 -360 1 -375 19 -385 13 -7
28 -7 45 0 l26 10 1 157 c1 194 2 204 30 243 73 99 211 94 284 -9 29 -42 29
-42 31 -199 1 -86 2 -167 3 -178 1 -28 24 -37 57 -22 l25 12 -1 168 c-2 202
-14 245 -86 315 -79 77 -193 92 -296 39 l-47 -25 -3 131 c-3 121 -5 132 -25
145 -19 13 -24 12 -42 -6z"/>
<path d="M3892 2307 c-6 -6 -14 -26 -18 -42 -4 -17 -10 -34 -14 -40 -5 -5 -17
-37 -28 -70 -12 -33 -29 -78 -38 -100 -10 -22 -19 -47 -20 -55 -2 -8 -12 -35
-22 -60 -11 -25 -35 -85 -53 -135 -18 -49 -40 -108 -50 -130 -48 -112 -45
-175 10 -175 30 1 61 21 61 41 0 14 44 130 81 216 11 24 19 47 19 53 0 6 44
10 113 10 l113 0 24 -67 c13 -38 26 -72 31 -78 4 -5 15 -36 24 -67 27 -95 70
-130 118 -94 21 16 22 43 1 85 -9 17 -17 37 -18 44 -8 35 -20 73 -26 82 -4 6
-13 28 -20 50 -7 22 -21 58 -30 80 -17 39 -34 83 -101 265 -69 186 -77 200
-115 200 -17 0 -36 -6 -42 -13z m83 -307 c2 -10 8 -28 14 -39 18 -33 14 -36
-54 -37 -36 0 -65 3 -65 8 0 5 14 46 32 90 l32 82 19 -43 c10 -23 20 -51 22
-61z"/>
<path d="M1175 2254 c-44 -48 -29 -115 31 -140 31 -13 38 -13 73 5 85 44 51
161 -47 161 -23 0 -40 -8 -57 -26z"/>
<path d="M1948 2224 c-2 -5 4 -34 14 -64 l18 -55 -6 45 c-8 55 -19 87 -26 74z"/>
<path d="M1384 2109 c75 -39 136 -61 136 -49 0 6 -6 10 -12 10 -7 0 -40 13
-74 29 -86 40 -121 48 -50 10z"/>
<path d="M1610 2108 c-98 -36 -104 -154 -10 -192 37 -14 43 -14 80 0 45 18 66
63 56 119 -10 53 -76 91 -126 73z"/>
<path d="M1963 2085 c-33 -14 -47 -42 -39 -80 3 -11 5 -23 5 -26 1 -4 17 -14
36 -23 34 -17 37 -16 70 4 30 19 35 27 35 61 0 34 -5 42 -32 59 -39 23 -34 23
-75 5z"/>
<path d="M2591 2054 c-56 -28 -120 -93 -122 -124 -1 -11 -2 -26 -2 -32 -5 -64
35 -104 122 -123 57 -13 175 -41 221 -54 34 -9 36 -33 5 -69 -63 -75 -184 -69
-260 14 -28 30 -38 35 -59 30 -21 -5 -26 -12 -26 -38 0 -25 10 -41 46 -74 67
-63 131 -80 230 -63 63 11 93 28 149 87 29 30 32 39 31 89 -1 48 -5 58 -31 79
-16 12 -58 30 -94 39 -36 9 -82 20 -101 25 -95 23 -150 42 -150 52 0 19 43 70
69 80 33 14 49 18 87 20 34 1 124 -38 124 -54 0 -15 42 -47 62 -48 19 0 38 28
35 52 -4 24 -49 73 -97 104 -36 24 -54 29 -116 31 -60 1 -81 -2 -123 -23z"/>
<path d="M2200 2050 c-40 -40 -12 -100 46 -100 28 0 65 45 57 68 -19 52 -68
67 -103 32z"/>
<path d="M1983 1868 c-1 -44 0 -48 7 -23 11 42 12 75 2 75 -5 0 -9 -24 -9 -52z"/>
<path d="M2338 1853 c-17 -20 -16 -49 4 -69 29 -29 84 28 61 62 -15 22 -49 25
-65 7z"/>
<path d="M1924 1782 c-26 -22 -25 -65 1 -91 16 -14 26 -17 51 -10 54 15 63 83
15 108 -27 15 -42 13 -67 -7z"/>
<path d="M3870 1161 l0 -171 28 0 c16 0 31 3 35 6 9 9 -4 35 -14 28 -5 -3 -9
21 -9 53 -2 220 -5 248 -22 251 -17 3 -18 -10 -18 -167z"/>
<path d="M4271 1203 c1 -70 4 -136 8 -145 3 -9 21 -29 40 -43 64 -46 150 -25
186 45 22 42 18 80 -10 122 -35 51 -91 67 -152 42 l-32 -13 -3 57 c-2 45 -7
58 -21 60 -16 3 -18 -6 -16 -125z m169 -18 c33 -17 42 -37 36 -85 -5 -48 -46
-79 -94 -73 -45 6 -71 37 -72 86 0 71 63 106 130 72z"/>
<path d="M3708 1232 c-38 -5 -88 -59 -89 -96 -2 -66 3 -82 38 -113 28 -27 44
-33 78 -33 47 0 98 31 89 55 -5 12 -11 11 -39 -4 -72 -38 -148 13 -129 87 5
20 21 44 37 56 27 20 29 20 75 4 35 -13 48 -14 54 -5 16 27 -53 57 -114 49z"/>
<path d="M4194 1228 c-5 -7 -9 -43 -9 -80 -2 -75 -22 -117 -58 -119 -82 -4
-101 18 -105 121 -4 72 -6 80 -24 80 -19 0 -20 -6 -17 -86 4 -84 5 -86 41
-120 41 -37 84 -44 133 -22 21 9 28 9 35 -2 4 -7 14 -11 21 -8 11 4 14 32 13
117 -1 108 -11 149 -30 119z"/>
</g>
</svg>
