<?xml version="1.0" standalone="no"?>
<!DOCTYPE svg PUBLIC "-//W3C//DTD SVG 20010904//EN"
 "http://www.w3.org/TR/2001/REC-SVG-20010904/DTD/svg10.dtd">
<svg version="1.0" xmlns="http://www.w3.org/2000/svg"
 width="773.000000pt" height="773.000000pt" viewBox="0 0 773.000000 773.000000"
 preserveAspectRatio="xMidYMid meet">
<metadata>
Created by potrace 1.11, written by Peter Selinger 2001-2013
</metadata>
<g transform="translate(0.000000,773.000000) scale(0.100000,-0.100000)"
fill="#000000" stroke="none">
<path d="M5387 6722 c-49 -54 18 -137 78 -98 55 36 35 116 -29 116 -19 0 -40
-8 -49 -18z"/>
<path d="M4883 6396 c-22 -19 -28 -32 -28 -66 0 -34 6 -47 28 -66 54 -46 137
-23 153 41 23 91 -81 152 -153 91z"/>
<path d="M5323 6165 c-91 -39 -62 -175 37 -175 100 0 127 137 35 176 -40 16
-32 17 -72 -1z"/>
<path d="M4350 6013 c-59 -53 -48 -153 20 -188 82 -42 170 14 170 111 0 28 -8
44 -34 70 -29 29 -41 34 -80 34 -36 0 -52 -6 -76 -27z"/>
<path d="M32 5684 c-34 -23 -27 -83 10 -104 25 -13 31 -13 55 0 38 21 45 81
11 104 -12 9 -29 16 -38 16 -9 0 -26 -7 -38 -16z"/>
<path d="M3890 5628 c-98 -68 -89 -208 18 -259 103 -50 212 21 212 138 0 111
-137 184 -230 121z"/>
<path d="M150 5599 c0 -11 151 -78 353 -154 11 -5 17 -2 17 6 0 11 -191 95
-352 155 -12 4 -18 1 -18 -7z"/>
<path d="M100 5554 c0 -23 110 -367 121 -378 25 -26 16 18 -34 176 -30 95 -58
183 -62 196 -7 25 -25 30 -25 6z"/>
<path d="M5321 5518 c-80 -43 -86 -164 -9 -204 39 -20 95 -17 128 6 33 24 54
78 45 119 -14 65 -107 110 -164 79z"/>
<path d="M556 5464 c-57 -58 -17 -154 64 -154 27 0 45 7 64 26 57 58 17 154
-64 154 -27 0 -45 -7 -64 -26z"/>
<path d="M740 5352 c0 -5 66 -38 148 -75 187 -84 182 -82 182 -66 0 8 -66 43
-153 82 -151 66 -177 75 -177 59z"/>
<path d="M1140 5201 c-16 -16 -32 -40 -36 -55 -9 -38 3 -74 36 -107 23 -24 37
-29 75 -29 40 0 52 5 81 34 28 28 34 42 34 76 0 34 -6 48 -34 76 -29 29 -41
34 -81 34 -38 0 -52 -5 -75 -29z"/>
<path d="M209 5131 c-32 -33 -37 -67 -14 -110 16 -33 33 -41 81 -41 49 0 84
37 84 87 -1 86 -91 124 -151 64z"/>
<path d="M1340 5042 c0 -8 226 -142 241 -142 28 0 -3 25 -105 84 -109 63 -136
75 -136 58z"/>
<path d="M3489 5030 c-76 -23 -122 -85 -122 -165 0 -153 181 -229 289 -121 84
84 62 219 -46 274 -46 23 -76 26 -121 12z"/>
<path d="M283 4939 c3 -13 22 -106 43 -206 26 -129 41 -183 51 -183 9 0 12 7
8 23 -3 12 -22 103 -43 201 -24 118 -42 181 -51 184 -10 3 -12 -2 -8 -19z"/>
<path d="M1673 4930 c-40 -24 -66 -73 -66 -125 0 -87 59 -145 150 -145 41 0
58 5 83 26 84 72 79 189 -12 244 -43 26 -113 26 -155 0z"/>
<path d="M5166 4880 c-67 -20 -115 -102 -102 -173 14 -72 73 -117 155 -117
150 0 196 208 61 278 -47 23 -67 26 -114 12z"/>
<path d="M1896 4691 c-3 -5 57 -68 133 -140 93 -88 142 -128 147 -120 7 12
-28 47 -208 209 -36 34 -69 56 -72 51z"/>
<path d="M365 4520 c-60 -24 -90 -103 -61 -158 50 -98 198 -74 213 34 11 88
-73 157 -152 124z"/>
<path d="M2255 4435 c-22 -8 -41 -15 -42 -15 -2 0 -16 -19 -33 -42 -25 -34
-30 -51 -30 -98 0 -98 69 -170 163 -170 100 0 167 69 167 172 0 118 -113 195
-225 153z"/>
<path d="M3195 4284 c-125 -68 -158 -215 -73 -319 81 -98 230 -99 315 -2 81
92 64 217 -40 301 -33 26 -48 31 -105 33 -48 2 -76 -1 -97 -13z"/>
<path d="M457 4263 c-8 -13 136 -313 150 -313 7 0 13 2 13 4 0 9 -149 316
-154 316 -3 0 -7 -3 -9 -7z"/>
<path d="M4535 4255 c-50 -18 -91 -62 -105 -115 -41 -151 129 -273 258 -187
114 75 101 242 -22 298 -49 22 -77 23 -131 4z"/>
<path d="M2420 4115 c0 -19 186 -325 198 -325 9 0 4 17 -19 58 -109 190 -155
266 -166 270 -7 2 -13 1 -13 -3z"/>
<path d="M675 3931 c-45 -11 -71 -31 -94 -72 -75 -132 77 -277 207 -197 47 29
76 95 66 151 -8 48 -68 117 -102 117 -11 0 -26 2 -34 4 -7 2 -26 1 -43 -3z"/>
<path d="M2682 3780 c-144 -34 -201 -229 -99 -338 90 -97 269 -76 327 37 46
91 35 177 -34 245 -29 29 -57 46 -88 54 -52 13 -59 13 -106 2z"/>
<path d="M3845 3766 c-74 -33 -118 -103 -118 -186 0 -65 18 -105 67 -148 97
-85 248 -56 307 60 32 62 24 153 -17 205 -58 73 -163 103 -239 69z"/>
<path d="M855 3671 c-3 -6 23 -28 57 -50 35 -22 126 -80 203 -129 83 -54 144
-86 149 -81 5 5 8 10 5 12 -5 4 -379 241 -396 250 -6 4 -14 3 -18 -2z"/>
<path d="M3182 3583 c-84 -41 -102 -160 -36 -227 61 -61 155 -57 213 9 26 30
31 44 31 87 0 115 -106 182 -208 131z"/>
<path d="M7378 3544 c-35 -18 -48 -43 -48 -89 0 -45 23 -81 61 -94 l29 -10 0
-590 c0 -532 -2 -591 -16 -591 -8 0 -29 -13 -45 -29 -23 -24 -29 -38 -29 -74
0 -38 5 -49 31 -71 30 -25 35 -26 168 -26 134 0 139 1 164 25 32 32 39 71 21
114 -16 38 -40 60 -66 61 -17 0 -18 35 -18 589 l0 589 38 19 c72 35 77 132 8
174 -26 16 -51 19 -151 19 -86 -1 -128 -5 -147 -16z"/>
<path d="M6550 3518 c-28 -20 -40 -44 -90 -183 -32 -88 -113 -304 -180 -480
-220 -574 -290 -768 -290 -800 0 -44 37 -76 94 -82 80 -9 85 -2 205 318 l107
284 215 0 214 0 86 -225 c48 -124 95 -247 105 -275 34 -95 99 -129 173 -90 75
38 77 33 -279 960 -78 204 -153 401 -166 438 -30 87 -57 130 -89 145 -38 18
-68 15 -105 -10z m138 -580 l60 -158 -135 0 c-125 0 -135 1 -128 18 4 9 29 76
55 147 75 202 71 193 80 170 4 -11 35 -91 68 -177z"/>
<path d="M4910 3498 c-20 -21 -20 -31 -20 -743 l0 -722 23 -21 c29 -27 77 -28
108 -3 l24 19 5 324 5 324 33 66 c65 133 171 195 316 186 114 -8 219 -77 274
-183 l27 -50 5 -331 c5 -308 6 -333 24 -353 29 -32 104 -24 128 13 4 6 8 159
8 339 0 305 -1 332 -21 390 -27 82 -67 142 -139 211 -165 157 -406 178 -595
52 l-65 -44 0 253 0 254 -26 20 c-35 28 -87 27 -114 -1z"/>
<path d="M1360 3438 c-58 -40 -75 -72 -75 -142 0 -53 4 -68 28 -99 37 -49 75
-67 140 -67 65 0 111 27 145 85 45 78 12 189 -68 230 -45 23 -130 19 -170 -7z"/>
<path d="M2800 3363 c1 -17 58 -235 64 -240 3 -4 9 -4 12 0 10 10 -50 240 -64
245 -7 2 -12 0 -12 -5z"/>
<path d="M1630 3182 c0 -7 316 -153 355 -164 6 -2 11 2 13 7 3 10 -330 165
-355 165 -7 0 -13 -4 -13 -8z"/>
<path d="M2160 3128 c-115 -32 -172 -165 -119 -276 56 -116 208 -145 306 -59
45 39 63 82 63 147 0 65 -18 108 -63 147 -55 48 -116 62 -187 41z"/>
<path d="M2840 3092 c-122 -61 -97 -243 36 -268 50 -9 118 19 144 60 25 42 27
117 3 157 -19 32 -85 69 -124 69 -13 0 -40 -8 -59 -18z"/>
<path d="M4133 3065 c-160 -43 -319 -188 -337 -307 -10 -66 15 -135 66 -185
49 -47 97 -64 398 -133 243 -56 248 -58 260 -80 15 -28 -7 -67 -70 -123 -88
-80 -216 -101 -336 -56 -47 18 -73 37 -129 96 -78 81 -109 91 -159 52 -50 -39
-32 -100 57 -191 128 -132 309 -180 488 -130 177 49 319 197 319 331 0 67 -28
130 -77 170 -33 28 -151 60 -585 163 -40 9 -68 31 -68 53 0 27 86 118 140 149
51 29 62 31 150 31 133 0 180 -25 293 -153 37 -41 86 -44 122 -7 49 48 24 110
-88 212 -119 108 -290 149 -444 108z"/>
<path d="M3322 3043 c-39 -19 -62 -59 -62 -108 0 -26 9 -45 33 -72 30 -32 39
-36 82 -36 43 0 52 4 82 36 55 60 40 147 -31 181 -42 20 -62 20 -104 -1z"/>
<path d="M2898 2784 c-10 -15 -31 -194 -24 -201 11 -12 17 6 27 77 11 75 9
143 -3 124z"/>
<path d="M3584 2660 c-55 -22 -70 -95 -29 -135 58 -59 158 -5 140 75 -11 50
-65 79 -111 60z"/>
<path d="M2779 2525 c-27 -15 -59 -69 -59 -100 0 -31 30 -81 59 -98 78 -46
171 11 171 105 0 81 -97 134 -171 93z"/>
<path d="M6495 1637 c-3 -7 -4 -154 -3 -327 l3 -315 60 0 60 0 0 30 c0 25 -4
30 -27 33 l-28 3 0 283 c0 206 -3 285 -12 294 -16 16 -47 15 -53 -1z"/>
<path d="M7262 1638 c-19 -19 -17 -418 3 -484 28 -94 123 -163 223 -164 205
-1 317 236 184 390 -82 97 -213 115 -315 45 l-36 -24 -3 122 c-3 114 -4 122
-23 125 -11 1 -26 -3 -33 -10z m309 -263 c68 -35 104 -125 79 -199 -15 -45
-79 -103 -124 -112 -60 -11 -103 3 -150 49 -49 48 -63 94 -47 154 29 107 144
158 242 108z"/>
<path d="M6135 1441 c-49 -23 -99 -74 -119 -123 -20 -46 -21 -138 -3 -181 53
-124 199 -181 322 -123 57 26 80 49 71 71 -10 28 -37 28 -92 0 -65 -33 -115
-31 -173 8 -104 69 -87 236 28 284 46 20 120 13 159 -15 35 -26 55 -28 72 -7
18 22 -9 58 -63 84 -56 27 -146 28 -202 2z"/>
<path d="M6709 1438 c-17 -31 -6 -262 14 -308 52 -123 200 -174 320 -111 l56
29 3 -26 c3 -30 30 -41 53 -22 12 10 15 51 15 224 0 116 -4 217 -9 224 -4 8
-19 12 -32 10 -24 -3 -24 -5 -30 -138 -6 -148 -16 -179 -69 -223 -56 -48 -126
-47 -189 0 -50 39 -61 75 -61 212 0 66 -3 126 -6 135 -9 24 -51 20 -65 -6z"/>
</g>
</svg>
